<svg width="621" height="621" viewBox="0 0 621 621" fill="none" xmlns="http://www.w3.org/2000/svg">
<path fill-rule="evenodd" clip-rule="evenodd" d="M462 184C462 100.053 393.947 32 310 32C226.053 32 158 100.053 158 184V295H226V184C226 137.608 263.608 100 310 100C356.392 100 394 137.608 394 184V295H462V184Z" fill="#455A64"/>
<rect x="112" y="267" width="396" height="321" rx="54" fill="#FFC107"/>
<path fill-rule="evenodd" clip-rule="evenodd" d="M335.025 443.227C353.96 433.96 367 414.503 367 392C367 360.52 341.48 335 310 335C278.52 335 253 360.52 253 392C253 414.818 266.407 434.504 285.774 443.61C285.189 444.774 284.786 446.05 284.604 447.405L276.824 505.405C275.858 512.601 281.456 519 288.717 519H332.283C339.544 519 345.142 512.601 344.176 505.405L336.396 447.405C336.194 445.9 335.719 444.492 335.025 443.227Z" fill="#455A64"/>
</svg>
