<svg width="79" height="70" viewBox="0 0 79 70" fill="none" xmlns="http://www.w3.org/2000/svg">
<path d="M59.6351 65.6351C58.732 66.5381 57.2679 66.5381 56.3649 65.6351L41.6493 50.9195C40.7463 50.0164 40.7463 48.5524 41.6493 47.6493C42.5524 46.7463 44.0164 46.7463 44.9195 47.6493L58 60.7299L71.0805 47.6493C71.9835 46.7463 73.4476 46.7463 74.3507 47.6493C75.2537 48.5524 75.2537 50.0165 74.3507 50.9195L59.6351 65.6351ZM60.3123 6.5L60.3123 64L55.6877 64L55.6877 6.5L60.3123 6.5Z" fill="#8B8B8B"/>
<rect x="51.2172" y="43.0347" width="18.4987" height="4.93298" transform="rotate(-180 51.2172 43.0347)" fill="#8B8B8B"/>
<rect x="51.2172" y="32.5522" width="27.4397" height="4.93298" transform="rotate(-180 51.2172 32.5522)" fill="#8B8B8B"/>
<rect x="51.2172" y="22.0698" width="36.3807" height="4.93298" transform="rotate(-180 51.2172 22.0698)" fill="#8B8B8B"/>
<rect x="51.2172" y="11.5869" width="45.9383" height="4.93298" transform="rotate(-180 51.2172 11.5869)" fill="#8B8B8B"/>
</svg>
