<svg width="79" height="70" viewBox="0 0 79 70" fill="none" xmlns="http://www.w3.org/2000/svg">
<path d="M19.3649 4.36493C20.268 3.46191 21.732 3.46191 22.6351 4.36493L37.3507 19.0805C38.2537 19.9836 38.2537 21.4476 37.3507 22.3507C36.4476 23.2537 34.9836 23.2537 34.0805 22.3507L21 9.27013L7.91947 22.3507C7.01645 23.2537 5.55236 23.2537 4.64934 22.3507C3.74632 21.4476 3.74632 19.9835 4.64934 19.0805L19.3649 4.36493ZM18.6877 63.5L18.6877 6L23.3123 6L23.3123 63.5L18.6877 63.5Z" fill="#8B8B8B"/>
<rect x="27.7828" y="26.9653" width="18.4987" height="4.93298" fill="#8B8B8B"/>
<rect x="27.7828" y="37.4478" width="27.4397" height="4.93298" fill="#8B8B8B"/>
<rect x="27.7828" y="47.9302" width="36.3807" height="4.93298" fill="#8B8B8B"/>
<rect x="27.7828" y="58.4131" width="45.9383" height="4.93298" fill="#8B8B8B"/>
</svg>
