<svg width="621" height="621" viewBox="0 0 621 621" fill="none" xmlns="http://www.w3.org/2000/svg">
<path d="M386.021 68.1812C322.607 13.1738 226.608 19.9887 171.6 83.4026C116.593 146.817 123.408 242.816 186.822 297.823L270.671 370.557L315.229 319.19L231.379 246.456C196.335 216.057 192.569 163.005 222.967 127.96C253.366 92.9161 306.419 89.1497 341.463 119.549L425.313 192.283L469.871 140.915L386.021 68.1812Z" fill="#BBBBBB"/>
<rect x="112" y="268.581" width="396" height="321" rx="54" fill="#AAAAAA"/>
<circle cx="310" cy="393.581" r="57" fill="white"/>
<path d="M284.604 448.986C285.403 443.029 290.487 438.581 296.498 438.581H324.502C330.513 438.581 335.597 443.029 336.396 448.986L344.176 506.986C345.142 514.183 339.544 520.581 332.283 520.581H288.717C281.456 520.581 275.858 514.183 276.824 506.986L284.604 448.986Z" fill="white"/>
</svg>
