<svg width="621" height="621" viewBox="0 0 621 621" fill="none" xmlns="http://www.w3.org/2000/svg">
<path d="M386.021 68.1812C322.607 13.1738 226.608 19.9887 171.6 83.4026C116.593 146.817 123.408 242.816 186.822 297.823L270.671 370.557L315.229 319.19L231.379 246.456C196.335 216.057 192.569 163.005 222.967 127.96C253.366 92.9161 306.419 89.1497 341.463 119.549L425.313 192.283L469.871 140.915L386.021 68.1812Z" fill="#455A64"/>
<rect x="112" y="268.581" width="396" height="321" rx="54" fill="#FFC107"/>
<path fill-rule="evenodd" clip-rule="evenodd" d="M335.025 444.809C353.96 435.541 367 416.084 367 393.581C367 362.101 341.48 336.581 310 336.581C278.52 336.581 253 362.101 253 393.581C253 416.399 266.407 436.085 285.774 445.192C285.189 446.356 284.786 447.632 284.604 448.986L276.824 506.986C275.858 514.183 281.456 520.581 288.717 520.581H332.283C339.544 520.581 345.142 514.183 344.176 506.986L336.396 448.986C336.194 447.481 335.719 446.073 335.025 444.809Z" fill="#455A64"/>
</svg>
