<svg width="31" height="30" viewBox="0 0 31 30" fill="none" xmlns="http://www.w3.org/2000/svg">
<path fill-rule="evenodd" clip-rule="evenodd" d="M14.9939 0C13.0517 0.00253148 11.1959 0.373851 9.49274 1.04769C5.05742 2.8366 1.65914 6.6684 0.454654 11.3777C0.251618 12.1716 0.118533 12.9683 0.0515099 13.7612C0.0178182 14.169 0.000430649 14.5815 0 14.998C0.0070881 21.6518 4.58837 27.7987 11.3953 29.5396C16.4733 30.8383 21.754 29.3524 25.5778 25.5488C27.5655 23.5716 29.0573 20.9653 29.5682 18.5776C29.6356 18.2628 29.7136 17.9543 29.7894 17.6934C29.946 16.8239 30.0278 15.9285 30.0278 15.0139C30.0278 13.9386 29.9147 12.8898 29.6999 11.8786C29.6397 11.6839 29.5779 11.4643 29.518 11.2288C28.1947 6.01779 23.93 1.79607 18.6165 0.43708C18.5234 0.413257 18.4295 0.390408 18.3349 0.368533C17.8017 0.248153 17.2579 0.156139 16.7049 0.094158C16.1416 0.0321093 15.5675 0.000729803 14.9939 0ZM5.76488 24.2294C-1.49222 16.9723 2.1524 4.47957 12.1908 2.20309C15.3355 1.48993 19.2821 2.18714 21.9433 3.9257C25.9236 6.52639 28.0166 10.3385 28.0166 14.9884C28.0166 19.6415 25.9241 23.4503 21.9362 26.0555C16.9964 29.2825 10.0316 28.4962 5.76488 24.2294ZM9.37572 14.0655C9.37572 13.8675 10.5616 12.5162 12.0111 11.0627C13.4604 9.60916 14.8049 8.41978 14.9984 8.41978C15.4678 8.41978 20.6361 13.5885 20.6361 14.058C20.6361 14.5302 20.1768 14.9884 19.7032 14.9884C19.4998 14.9884 18.5971 14.2463 17.6974 13.3394L16.0616 11.6902L15.9443 16.4224C15.8408 20.5963 15.7787 21.1851 15.4165 21.4134C15.1174 21.6017 14.8945 21.6017 14.5954 21.4134C14.2332 21.1851 14.171 20.5963 14.0676 16.4224L13.9503 11.6902L12.3145 13.3394C11.4148 14.2463 10.5121 14.9884 10.3087 14.9884C9.83787 14.9884 9.37572 14.5311 9.37572 14.0655ZM0.164464 16.1027C0.116138 16.7154 0.076492 16.2141 0.076492 14.9884C0.076492 13.7626 0.116138 13.2613 0.164464 13.874C0.21279 14.4868 0.21279 15.4899 0.164464 16.1027Z" fill="#585858"/>
</svg>
