<svg width="64" height="65" viewBox="0 0 64 65" fill="none" xmlns="http://www.w3.org/2000/svg">
<path d="M37.7937 19.992C33.9365 19.992 30.0793 20.0582 26.222 19.9589C24.7818 19.9258 24.3679 20.3893 24.3845 21.813C24.4507 27.6071 24.401 33.3847 24.4341 39.1788C24.4341 39.7582 24.0534 40.5197 25.0632 41.0494C26.7187 39.3278 28.4238 37.5895 30.0793 35.8182C31.3871 34.4111 32.6121 34.4111 33.9199 35.8016C35.5754 37.573 37.2805 39.3112 38.9691 41.066C39.1843 40.9998 39.3829 40.917 39.5981 40.8508C39.5981 34.3448 39.565 27.8389 39.6147 21.3329C39.6147 19.8596 38.7207 19.992 37.7937 19.992Z" fill="#159800"/>
<path d="M32 0.143311C14.3197 0.143311 0 14.4796 0 32.1433C0 49.807 14.3363 64.1433 32 64.1433C49.6803 64.1433 64 49.807 64 32.1433C64 14.4796 49.6803 0.143311 32 0.143311ZM43.6213 32.2592C43.6213 36.6296 43.6048 41 43.6379 45.3704C43.6379 46.5127 43.5882 47.6053 42.3963 48.1516C41.1547 48.7144 40.3435 47.8867 39.5654 47.1086C37.5458 45.089 35.4268 43.1521 33.5396 41.0166C32.298 39.626 31.553 39.8412 30.4108 41.0993C28.4242 43.268 26.2556 45.2711 24.2028 47.357C23.5075 48.0523 22.746 48.5986 21.7527 48.2178C20.6767 47.8205 20.3621 46.8934 20.3787 45.7843C20.3952 36.7124 20.3952 27.6405 20.3787 18.5686C20.3787 16.7807 21.2064 15.986 22.9943 15.986C28.954 16.0026 34.9302 16.0357 40.8898 15.9695C42.9922 15.9529 43.6875 16.9462 43.6544 18.9162C43.5882 23.3528 43.6213 27.806 43.6213 32.2592Z" fill="#159800"/>
</svg>
