<svg width="23" height="22" viewBox="0 0 23 22" fill="none" xmlns="http://www.w3.org/2000/svg">
<path d="M10.1604 0C10.7337 0 11.3069 0 11.8802 0C11.9289 0.0114649 11.9771 0.0286617 12.0258 0.0326745C13.6343 0.177705 15.1448 0.643753 16.5332 1.46808C19.2922 3.10698 21.0418 5.49512 21.7807 8.62102C21.8993 9.12375 21.944 9.63738 22.0266 10.1458C22.0266 10.7191 22.0266 11.2923 22.0266 11.8656C22.0146 11.9286 21.9968 11.9911 21.9905 12.0542C21.8328 13.6765 21.3765 15.2105 20.5086 16.5908C18.093 20.4304 14.6054 22.2631 10.0704 21.9696C7.47938 21.8016 5.22481 20.752 3.38126 18.932C0.611347 16.197 -0.473804 12.863 0.188866 9.02573C0.958732 4.56761 4.44635 1.07369 8.88784 0.19261C9.30975 0.110063 9.73796 0.0773879 10.1604 0ZM4.31737 7.35128C4.32482 7.44415 4.33113 7.53701 4.33915 7.6293C4.42973 8.7328 4.83902 9.73081 5.38819 10.6715C6.79493 13.0814 8.70555 15.0081 11.0748 16.4745C12.0992 17.1085 13.1912 17.5986 14.4162 17.6863C15.2216 17.7436 15.9743 17.59 16.5773 16.999C16.884 16.6986 17.1878 16.3942 17.4785 16.0783C17.7983 15.7315 17.7989 15.254 17.4664 14.9141C16.7608 14.1918 16.0465 13.4781 15.3242 12.7713C14.9694 12.4239 14.4861 12.4382 14.1296 12.7816C13.9387 12.9656 13.757 13.1582 13.5655 13.3417C13.1281 13.7607 12.5514 13.8542 12.0195 13.5693C10.474 12.7421 9.28338 11.5537 8.45676 10.0077C8.17129 9.474 8.26358 8.89789 8.68205 8.46165C8.85574 8.28051 9.03689 8.10739 9.2123 7.92854C9.59523 7.53873 9.60726 7.05663 9.22663 6.67084C8.53759 5.97206 7.84339 5.27843 7.14518 4.58939C6.76741 4.21678 6.28646 4.22309 5.89952 4.58824C5.6708 4.80493 5.44723 5.02735 5.2145 5.24002C4.59425 5.80811 4.32883 6.52409 4.31737 7.35128Z" fill="#014FE5"/>
</svg>
