<svg width="65" height="64" viewBox="0 0 65 64" fill="none" xmlns="http://www.w3.org/2000/svg">
<path d="M29.7095 0C31.3771 0 33.0448 0 34.7124 0C34.8541 0.0333524 34.9942 0.0833796 35.1359 0.0950529C39.8153 0.51696 44.2095 1.87274 48.2484 4.27077C56.2747 9.03849 61.3643 15.9858 63.5138 25.0793C63.859 26.5418 63.9891 28.036 64.2292 29.5152C64.2292 31.1828 64.2292 32.8504 64.2292 34.518C64.1942 34.7015 64.1425 34.8832 64.1242 35.0667C63.6656 39.786 62.3381 44.2486 59.8134 48.2642C52.786 59.4339 42.6402 64.7653 29.4477 63.9115C21.9101 63.4229 15.3513 60.3695 9.98825 55.0748C1.93032 47.1186 -1.22648 37.4197 0.701283 26.2567C2.9409 13.2876 13.0867 3.12345 26.0074 0.56032C27.2348 0.320183 28.4805 0.225129 29.7095 0ZM12.7115 21.3855C12.7332 21.6557 12.7515 21.9259 12.7748 22.1943C13.0383 25.4045 14.229 28.3078 15.8266 31.0444C19.9189 38.0551 25.4771 43.6599 32.3694 47.9257C35.3494 49.7701 38.5262 51.1959 42.0899 51.451C44.4329 51.6178 46.6225 51.1709 48.3768 49.4516C49.269 48.5777 50.1529 47.6922 50.9983 46.7734C51.9289 45.7645 51.9305 44.3753 50.9633 43.3864C48.9105 41.2852 46.8326 39.2091 44.7314 37.1529C43.6992 36.1423 42.2934 36.184 41.2561 37.1829C40.7008 37.7182 40.1722 38.2785 39.6152 38.8122C38.3428 40.0312 36.6652 40.303 35.1176 39.4742C30.6217 37.0678 27.1581 33.6109 24.7533 29.1133C23.9229 27.5607 24.1914 25.8848 25.4087 24.6157C25.914 24.0888 26.441 23.5851 26.9513 23.0648C28.0652 21.9309 28.1003 20.5284 26.993 19.4061C24.9885 17.3733 22.969 15.3554 20.9378 13.351C19.8389 12.267 18.4397 12.2853 17.3141 13.3476C16.6487 13.978 15.9984 14.625 15.3213 15.2437C13.5169 16.8963 12.7448 18.9792 12.7115 21.3855Z" fill="#015DE2"/>
</svg>
