<svg width="30" height="30" viewBox="0 0 30 30" fill="none" xmlns="http://www.w3.org/2000/svg">
<path fill-rule="evenodd" clip-rule="evenodd" d="M0.310544 0.315629C0.139745 0.486428 0 0.812499 0 1.04023C0 1.75371 0.577353 2.07538 1.85835 2.07538C2.93309 2.07538 3.11139 2.15198 3.21672 2.65765C3.28323 2.97803 3.70117 6.79176 4.14524 11.1329C4.58932 15.4741 5.01244 19.2751 5.08516 19.5797C5.15813 19.8846 5.56495 20.4668 5.98962 20.8736L6.76183 21.6138L15.7971 21.688C25.5593 21.7683 25.8849 21.7292 26.7748 20.3711C27.1672 19.7717 29.7605 8.2345 29.7605 7.08704C29.7605 6.73742 29.4745 6.1655 29.1251 5.81614L28.4901 5.18082H17.1035H5.71685L5.5885 4.33976C5.51811 3.87705 5.38871 2.86105 5.30124 2.08185C5.21403 1.30264 5.01917 0.516447 4.86855 0.335038C4.50754 -0.100241 0.742459 -0.116286 0.310544 0.315629ZM5.96658 7.96277C5.97435 8.35432 6.24167 11.0403 6.56076 13.9317C6.9831 17.7617 7.2424 19.2534 7.51672 19.427C7.7253 19.5587 11.6001 19.6667 16.2073 19.669C23.298 19.6723 24.5689 19.6157 24.8445 19.2834C25.0223 19.0691 25.6747 16.5361 26.294 13.6548C26.9133 10.7732 27.4829 8.15376 27.56 7.83338L27.7 7.25111H16.826H5.95209L5.96658 7.96277ZM7.73073 24.2492C6.29265 25.1418 5.79708 27.0444 6.63425 28.4613C7.84589 30.5129 10.7867 30.5129 11.9984 28.4613C13.5811 25.782 10.3691 22.6119 7.73073 24.2492ZM20.1525 24.2492C18.7144 25.1418 18.2188 27.0444 19.056 28.4613C20.2676 30.5129 23.2085 30.5129 24.4201 28.4613C26.0029 25.782 22.7908 22.6119 20.1525 24.2492ZM8.55031 26.2595C7.86271 27.0879 8.8725 28.3603 9.76919 27.7957C10.6651 27.2312 10.346 25.8837 9.31632 25.8837C9.06659 25.8837 8.72188 26.0527 8.55031 26.2595ZM20.9721 26.2595C20.2845 27.0879 21.2943 28.3603 22.1909 27.7957C23.0869 27.2312 22.7678 25.8837 21.7381 25.8837C21.4883 25.8837 21.1436 26.0527 20.9721 26.2595Z" fill="#585858"/>
</svg>
