<svg width="64" height="64" viewBox="0 0 64 64" fill="none" xmlns="http://www.w3.org/2000/svg">
<path d="M63.8147 28.9897C63.4424 25.0864 62.4835 21.3354 60.6615 17.8777C54.5866 6.35951 44.9298 0.521457 32.0015 0.0025184C30.3657 -0.0200441 28.775 0.109699 27.2013 0.363527C20.3705 1.46345 14.414 4.35145 9.51791 9.26445C2.27533 16.5409 -0.810094 25.3572 0.182658 35.5611C0.583143 39.6787 1.85792 43.5708 3.88291 47.1921C4.22699 47.8125 4.2552 48.3371 4.02957 49.0027C2.72095 52.8383 1.4518 56.6853 0.171374 60.5322C-0.014767 61.0962 -0.15014 61.6603 0.323673 62.151C0.808768 62.653 1.35591 62.4895 1.92561 62.2977C5.65971 61.0455 9.4051 59.8102 13.1392 58.5523C13.6187 58.3887 13.9966 58.4056 14.4422 58.6933C20.7089 62.7828 27.5679 64.5314 35.0361 63.8601C38.9225 63.5104 42.6059 62.4669 46.0918 60.7352C57.8469 54.9028 65.0951 42.4709 63.8147 28.9897ZM18.588 36.4297C16.0949 36.4297 14.0755 34.4104 14.0755 31.9172C14.0755 29.4241 16.0949 27.4047 18.588 27.4047C21.0812 27.4047 23.1005 29.4241 23.1005 31.9172C23.1005 34.4104 21.0812 36.4297 18.588 36.4297ZM31.8774 36.4297C29.3842 36.4297 27.3649 34.4104 27.3649 31.9172C27.3649 29.4241 29.3842 27.4047 31.8774 27.4047C34.3706 27.4047 36.3899 29.4241 36.3899 31.9172C36.3899 34.4104 34.3706 36.4297 31.8774 36.4297ZM45.1611 36.4297C42.6679 36.4297 40.6486 34.4104 40.6486 31.9172C40.6486 29.4241 42.6679 27.4047 45.1611 27.4047C47.6542 27.4047 49.6736 29.4241 49.6736 31.9172C49.6736 34.4104 47.6542 36.4297 45.1611 36.4297Z" fill="#015DE2"/>
</svg>
