<svg width="25" height="25" viewBox="0 0 25 25" fill="none" xmlns="http://www.w3.org/2000/svg">
<path fill-rule="evenodd" clip-rule="evenodd" d="M9.76892 0.280592C6.29908 1.02592 2.96145 3.63269 1.38631 6.82814C0.419412 8.78931 -0.0423702 10.8185 0.00305085 12.8316C0.00108715 12.8964 3.08935e-09 12.955 3.08935e-09 13.0055C3.08935e-09 13.379 0.059429 13.8416 0.0931739 14.0529C0.245332 15.2668 0.583914 16.4686 1.10938 17.6396L1.62745 18.7938L0.790994 21.3282C-0.507799 25.2637 -0.263725 25.5078 3.67177 24.209L6.20618 23.3725L7.36045 23.8906C10.8551 25.4589 14.6248 25.3625 18.1719 23.6137C21.364 22.0401 24.0549 18.5969 24.6854 15.279C24.7105 15.1467 24.7374 15.0192 24.765 14.8996C25.1163 12.8424 24.8955 10.8345 24.7366 10.0719L24.7718 10.0603C24.7454 9.95236 24.7195 9.83611 24.6948 9.71381C24.5581 9.03732 24.0785 7.73873 23.6289 6.82814C21.1555 1.81857 15.3586 -0.919828 9.76892 0.280592ZM10.214 2.22771C7.30706 2.8594 4.50999 5.068 3.13336 7.81852C1.64662 10.7889 1.61768 13.8678 3.04692 16.9946L3.77855 18.5951L3.16054 20.4708C2.82083 21.5027 2.56757 22.3716 2.59788 22.4021C2.62839 22.4324 3.49732 22.1792 4.52915 21.8395L6.40488 21.2215L8.00544 21.9531C11.1322 23.3823 14.2111 23.3534 17.1815 21.8666C20.205 20.3533 22.4032 17.337 22.908 14.0088C23.9964 6.83284 17.361 0.674865 10.214 2.22771ZM6.76787 11.6773C6.06615 12.4526 6.60554 13.6665 7.65165 13.6665C8.65318 13.6665 9.17555 12.3149 8.43336 11.6433C7.96105 11.2158 7.17094 11.232 6.76787 11.6773ZM11.6572 11.6773C10.9555 12.4526 11.4948 13.6665 12.541 13.6665C13.5425 13.6665 14.0648 12.3149 13.3227 11.6433C12.8503 11.2158 12.0602 11.232 11.6572 11.6773ZM16.5465 11.6773C15.8447 12.4526 16.3841 13.6665 17.4302 13.6665C18.4318 13.6665 18.9541 12.3149 18.2119 11.6433C17.7396 11.2158 16.9495 11.232 16.5465 11.6773Z" fill="#585858"/>
</svg>
