<svg width="26" height="25" viewBox="0 0 26 25" fill="none" xmlns="http://www.w3.org/2000/svg">
<path fill-rule="evenodd" clip-rule="evenodd" d="M10.2391 0.634961C9.73535 1.09648 9.51758 1.48359 9.44121 2.05293C9.34941 2.73691 9.24102 2.87656 8.58301 3.15762C7.90137 3.44863 7.80605 3.4502 7.57715 3.17422C7.15957 2.6707 6.07207 2.30898 5.41191 2.45391C4.62227 2.62734 2.81074 4.35254 2.53242 5.19609C2.27637 5.97207 2.5293 6.98047 3.1125 7.5082C3.45664 7.81973 3.45898 7.87734 3.15605 8.58672C2.87676 9.24063 2.73613 9.34961 2.05293 9.44121C1.48359 9.51758 1.09648 9.73535 0.634961 10.2391C0.0289063 10.9004 0 11.0029 0 12.5C0 13.9971 0.0289063 14.0996 0.634961 14.7609C1.09648 15.2646 1.48359 15.4824 2.05293 15.5588C2.73613 15.6504 2.87676 15.7594 3.15605 16.4133C3.45898 17.1227 3.45664 17.1803 3.1125 17.4918C2.5293 18.0195 2.27637 19.0279 2.53242 19.8039C2.81074 20.6475 4.62227 22.3727 5.41191 22.5461C6.07207 22.691 7.15957 22.3293 7.57715 21.8258C7.80605 21.5498 7.90137 21.5514 8.58301 21.8424C9.24102 22.1234 9.34941 22.2631 9.44121 22.9471C9.51758 23.5164 9.73535 23.9035 10.2391 24.365C10.9004 24.9711 11.0029 25 12.5 25C13.9971 25 14.0996 24.9711 14.7609 24.365C15.2646 23.9035 15.4824 23.5164 15.5588 22.9471C15.6506 22.2631 15.759 22.1234 16.417 21.8424C17.0986 21.5514 17.1939 21.5498 17.4229 21.8258C17.8404 22.3293 18.9279 22.691 19.5881 22.5461C20.3777 22.3727 22.1893 20.6475 22.4676 19.8039C22.7236 19.0279 22.4707 18.0195 21.8875 17.4918C21.5434 17.1803 21.541 17.1227 21.8439 16.4133C22.1236 15.7584 22.2629 15.6508 22.9473 15.5609C23.5531 15.4814 23.8963 15.2723 24.4629 14.6375C25.1805 13.8336 25.1953 13.7852 25.1953 12.2471C25.1953 11.3836 25.1449 10.7273 25.0834 10.7889C25.0219 10.8504 24.6924 10.5961 24.351 10.2234C23.9031 9.73496 23.5121 9.51699 22.9471 9.44121C22.2631 9.34941 22.1234 9.24102 21.8424 8.58301C21.5514 7.90137 21.5498 7.80605 21.8258 7.57715C22.3293 7.15957 22.691 6.07207 22.5461 5.41191C22.3727 4.62227 20.6475 2.81074 19.8039 2.53242C19.0279 2.27637 18.0195 2.5293 17.4918 3.1125C17.1803 3.45664 17.1227 3.45898 16.4133 3.15605C15.7594 2.87676 15.6504 2.73613 15.5588 2.05293C15.4824 1.48359 15.2646 1.09648 14.7609 0.634961C14.0996 0.0289063 13.9971 0 12.5 0C11.0029 0 10.9004 0.0289063 10.2391 0.634961ZM11.0561 1.87148C10.9908 2.04141 10.9375 2.51953 10.9375 2.93418C10.9375 3.76914 10.9031 3.80273 9.375 4.46152C7.68965 5.18809 7.40664 5.19297 6.75059 4.50645C6.43516 4.17637 6.04297 3.90625 5.8791 3.90625C5.48027 3.90625 3.90625 5.46777 3.90625 5.86348C3.90625 6.03594 4.17637 6.43516 4.50645 6.75059C5.19297 7.40664 5.18809 7.68965 4.46152 9.375C3.80273 10.9031 3.76914 10.9375 2.93418 10.9375C1.63809 10.9375 1.5625 11.0236 1.5625 12.5C1.5625 13.9764 1.63809 14.0625 2.93418 14.0625C3.76914 14.0625 3.80273 14.0969 4.46152 15.625C5.18809 17.3104 5.19297 17.5934 4.50645 18.2494C4.17637 18.5648 3.90625 18.9641 3.90625 19.1365C3.90625 19.5322 5.48027 21.0938 5.8791 21.0938C6.04297 21.0938 6.43516 20.8236 6.75059 20.4936C7.40664 19.807 7.68965 19.8119 9.375 20.5385C10.9031 21.1973 10.9375 21.2309 10.9375 22.0658C10.9375 23.3619 11.0236 23.4375 12.5 23.4375C13.9764 23.4375 14.0625 23.3619 14.0625 22.0658C14.0625 21.2309 14.0969 21.1973 15.625 20.5385C17.3104 19.8119 17.5934 19.807 18.2494 20.4936C18.5648 20.8236 18.957 21.0938 19.1209 21.0938C19.5197 21.0938 21.0938 19.5322 21.0938 19.1365C21.0938 18.9641 20.8236 18.5648 20.4936 18.2494C19.807 17.5934 19.8119 17.3104 20.5385 15.625C21.1973 14.0969 21.2309 14.0625 22.0658 14.0625C23.3619 14.0625 23.4375 13.9764 23.4375 12.5C23.4375 11.0236 23.3619 10.9375 22.0658 10.9375C21.2309 10.9375 21.1973 10.9031 20.5385 9.375C19.8119 7.68965 19.807 7.40664 20.4936 6.75059C20.8236 6.43516 21.0938 6.04297 21.0938 5.8791C21.0938 5.48027 19.5322 3.90625 19.1365 3.90625C18.9641 3.90625 18.5648 4.17637 18.2494 4.50645C17.5934 5.19297 17.3104 5.18809 15.625 4.46152C14.0969 3.80273 14.0625 3.76914 14.0625 2.93418C14.0625 1.63809 13.9764 1.5625 12.5 1.5625C11.4717 1.5625 11.148 1.63164 11.0561 1.87148ZM11.1316 7.20195C9.55703 7.71855 8.36211 8.69414 7.66133 10.0352C7.23008 10.8604 7.13867 11.2912 7.13867 12.5C7.13867 14.7873 8.0875 16.3018 10.2312 17.4365C10.851 17.7646 11.3707 17.8619 12.5 17.8617C14.7875 17.8609 16.3018 16.9123 17.4365 14.7687C18.0797 13.5537 18.0385 11.3717 17.3473 10.0586C16.7346 8.89434 16.0311 8.20547 14.8494 7.6127C13.9107 7.1418 11.9689 6.92734 11.1316 7.20195ZM10.8398 8.96289C8.89043 9.8627 8.05156 12.1855 8.96289 14.1602C10.3455 17.1559 14.6545 17.1559 16.0371 14.1602C16.7143 12.693 16.3449 10.673 15.2086 9.62852C14.083 8.59375 12.2461 8.31387 10.8398 8.96289ZM0.0681641 12.5C0.0681641 13.4131 0.101953 13.7867 0.142969 13.3301C0.18418 12.8734 0.18418 12.1264 0.142969 11.6699C0.101953 11.2133 0.0681641 11.5869 0.0681641 12.5Z" fill="#585858"/>
</svg>
