<svg width="64" height="64" viewBox="0 0 64 64" fill="none" xmlns="http://www.w3.org/2000/svg">
<path fill-rule="evenodd" clip-rule="evenodd" d="M9.64915 0.277674C9.4261 0.500131 9.24419 13.374 9.24419 28.887V57.0913L4.6221 57.2655L0 57.4396V60.7198V64H31.9074H63.8148V60.7198V57.4396L59.1986 57.2655L54.5819 57.0913L54.4274 28.6383L54.2724 0.185232L32.1632 0.0289751C20.0026 -0.0569064 9.87161 0.0546202 9.64915 0.277674ZM16.401 10.0258V13.0078H19.383H22.365V10.0258V7.04383H19.383H16.401V10.0258ZM28.9254 10.0258V13.0078H31.9074H34.8894V10.0258V7.04383H31.9074H28.9254V10.0258ZM41.4498 10.0258V13.0078H44.4318H47.4138V10.0258V7.04383H44.4318H41.4498V10.0258ZM16.401 22.5502V25.5322H19.383H22.365V22.5502V19.5682H19.383H16.401V22.5502ZM28.9254 22.5502V25.5322H31.9074H34.8894V22.5502V19.5682H31.9074H28.9254V22.5502ZM41.4498 22.5502V25.5322H44.4318H47.4138V22.5502V19.5682H44.4318H41.4498V22.5502ZM16.401 35.0746V38.0566H19.383H22.365V35.0746V32.0926H19.383H16.401V35.0746ZM28.9254 35.0746V38.0566H31.9074H34.8894V35.0746V32.0926H31.9074H28.9254V35.0746ZM41.4498 35.0746V38.0566H44.4318H47.4138V35.0746V32.0926H44.4318H41.4498V35.0746ZM25.9434 51.1774V57.1414H31.9074H37.8714V51.1774V45.2134H31.9074H25.9434V51.1774Z" fill="#556080"/>
</svg>
