<svg width="24" height="22" viewBox="0 0 24 22" fill="none" xmlns="http://www.w3.org/2000/svg">
<path d="M22.1241 11C22.1241 16.5345 17.4475 21.082 11.6021 21.082C5.75671 21.082 1.08012 16.5345 1.08012 11C1.08012 5.46547 5.75671 0.918011 11.6021 0.918011C17.4475 0.918011 22.1241 5.46547 22.1241 11Z" stroke="#585858" stroke-width="1.83602"/>
<path d="M7.84442 7.78726C7.84442 7.63304 7.90501 7.39068 8.02619 7.0602C8.14737 6.7187 8.35117 6.3772 8.63758 6.0357C8.93502 5.68318 9.32058 5.38024 9.79428 5.12687C10.279 4.86248 10.8849 4.73029 11.6119 4.73029C12.2068 4.73029 12.7246 4.82392 13.1652 5.0112C13.6059 5.19847 13.9694 5.44634 14.2558 5.75479C14.5532 6.05222 14.7681 6.38821 14.9003 6.76276C15.0435 7.13731 15.1151 7.51186 15.1151 7.88641C15.1151 8.43722 14.9774 8.92743 14.702 9.35706C14.4376 9.78669 14.03 10.2659 13.4792 10.7947C13.1487 11.1141 12.8898 11.373 12.7025 11.5713C12.5153 11.7696 12.3721 11.9514 12.2729 12.1166C12.1738 12.2818 12.1077 12.4526 12.0746 12.6289C12.0416 12.7941 12.0085 13.0144 11.9755 13.2898C11.9755 13.3229 11.9645 13.378 11.9424 13.4551C11.9314 13.5322 11.8984 13.6093 11.8433 13.6864C11.7992 13.7525 11.7331 13.8131 11.645 13.8682C11.5569 13.9232 11.4412 13.9508 11.298 13.9508C11.1217 13.9508 10.984 13.9177 10.8849 13.8516C10.7967 13.7745 10.7306 13.6864 10.6866 13.5873C10.6425 13.4881 10.615 13.3945 10.604 13.3063C10.604 13.2072 10.604 13.1356 10.604 13.0915C10.604 12.75 10.637 12.4471 10.7031 12.1827C10.7692 11.9183 10.8684 11.6704 11.0005 11.4391C11.1327 11.2078 11.2925 10.9874 11.4797 10.7781C11.678 10.5578 11.9094 10.332 12.1738 10.1007C12.4051 9.89134 12.6089 9.69856 12.7852 9.5223C12.9724 9.34605 13.1267 9.1753 13.2478 9.01005C13.369 8.84481 13.4571 8.67406 13.5122 8.4978C13.5783 8.32155 13.6114 8.12326 13.6114 7.90293C13.6114 7.64956 13.5618 7.40721 13.4627 7.17587C13.3635 6.93351 13.2203 6.72421 13.033 6.54795C12.8457 6.36067 12.6199 6.21746 12.3555 6.11832C12.1022 6.00816 11.8212 5.95308 11.5128 5.95308C11.1162 5.95308 10.7857 6.03019 10.5213 6.18442C10.268 6.32763 10.0587 6.49838 9.89342 6.69667C9.72818 6.89496 9.6015 7.10426 9.51337 7.32459C9.43625 7.53389 9.38117 7.70464 9.34813 7.83684C9.29304 7.98005 9.21593 8.13427 9.11679 8.29951C9.02866 8.46476 8.8524 8.54738 8.58801 8.54738C8.42277 8.54738 8.25753 8.48679 8.09229 8.36561C7.92704 8.23342 7.84442 8.04063 7.84442 7.78726ZM11.4467 15.1405C11.7001 15.1405 11.9149 15.2287 12.0911 15.4049C12.2674 15.5812 12.3555 15.796 12.3555 16.0494C12.3555 16.3027 12.2674 16.5175 12.0911 16.6938C11.9149 16.8701 11.7001 16.9582 11.4467 16.9582C11.1933 16.9582 10.9785 16.8701 10.8023 16.6938C10.626 16.5175 10.5379 16.3027 10.5379 16.0494C10.5379 15.796 10.626 15.5812 10.8023 15.4049C10.9785 15.2287 11.1933 15.1405 11.4467 15.1405Z" fill="#585858"/>
</svg>
