<svg width="22" height="22" viewBox="0 0 22 22" fill="none" xmlns="http://www.w3.org/2000/svg">
<path fill-rule="evenodd" clip-rule="evenodd" d="M11 22C17.0751 22 22 17.0751 22 11C22 4.92487 17.0751 0 11 0C4.92487 0 0 4.92487 0 11C0 17.0751 4.92487 22 11 22ZM6.61113 6.74163C8.29171 5.33161 9.91202 4.0502 10.2119 3.89389C10.5116 3.73737 10.8934 3.60938 11.0602 3.60938C11.6419 3.60938 12.474 4.19538 15.5092 6.74163C18.375 9.14551 18.561 9.34469 18.503 9.94405C18.452 10.4686 18.323 10.618 17.7837 10.7768L17.1265 10.9703V13.7594C17.1265 17.2857 17.0786 17.3573 14.7178 17.3573H13.1181L13.0495 15.115C12.9834 12.9467 12.9626 12.8567 12.4138 12.3851C12.0247 12.0507 11.5995 11.8976 11.0602 11.8976C10.5209 11.8976 10.0956 12.0507 9.70658 12.3851C9.15777 12.8567 9.13695 12.9467 9.07082 15.115L9.00228 17.3573H7.40258C5.04176 17.3573 4.99384 17.2857 4.99384 13.7594V10.9703L4.33665 10.7768C3.79736 10.618 3.66835 10.4686 3.61739 9.94405C3.55935 9.34469 3.74539 9.14551 6.61113 6.74163Z" fill="#014FE5"/>
</svg>
