<svg width="26" height="30" viewBox="0 0 26 30" fill="none" xmlns="http://www.w3.org/2000/svg">
<path fill-rule="evenodd" clip-rule="evenodd" d="M10.2724 0.285294C4.84789 2.0624 2.60536 8.34631 5.67185 13.1775C6.46574 14.4283 6.4789 14.4954 5.98635 14.771C3.779 16.0064 1.52653 19.4134 0.623346 22.883C0.0217572 25.1937 -0.209747 29.0686 0.222645 29.5894C0.51941 29.9468 2.15417 30 12.8517 30C23.5551 30 25.184 29.9471 25.481 29.5891C25.73 29.2891 25.7767 28.5457 25.6535 26.8363C25.3285 22.3214 23.9942 18.8572 21.6693 16.4917C20.8818 15.6905 20.0044 14.9106 19.72 14.7589C19.2245 14.4949 19.2379 14.4283 20.0375 13.1775C22.2647 9.69317 21.7762 5.33944 18.827 2.39032C18.1835 1.74683 17.0894 0.968795 16.3957 0.661287C14.8313 -0.0324199 11.8089 -0.217999 10.2724 0.285294ZM11.2387 2.30437C8.22914 3.28974 6.55839 5.50676 6.55839 8.5147C6.55839 12.2069 9.15865 14.8061 12.8517 14.8061C16.5448 14.8061 19.145 12.2069 19.145 8.5147C19.145 5.955 17.952 3.98291 15.7044 2.82727C14.5466 2.23186 12.2729 1.96571 11.2387 2.30437ZM6.90726 16.8311C4.30727 18.5532 2.92308 21.4462 2.24495 26.5758L2.07602 27.8515H12.8445H23.6129L23.4464 26.4415C22.8684 21.5512 20.9361 17.8404 18.2418 16.4471C17.4842 16.0552 17.3083 16.0657 15.7436 16.5959C13.7863 17.2587 11.0886 17.2058 9.62542 16.4761C8.44587 15.8874 8.30353 15.9059 6.90726 16.8311Z" fill="#585858"/>
</svg>
