<svg width="20" height="22" viewBox="0 0 20 22" fill="none" xmlns="http://www.w3.org/2000/svg">
<path fill-rule="evenodd" clip-rule="evenodd" d="M8.75156 0.320188C8.04526 0.747742 7.83068 1.15757 7.82981 2.08099C7.82929 2.80516 7.80884 2.83183 7.00651 3.15598C6.49971 3.36072 5.74539 3.92213 5.04151 4.61844C3.41121 6.23092 3.15104 6.99089 2.97598 10.652C2.80456 14.2381 2.35998 15.6314 0.736608 17.6701C-0.562646 19.3017 -0.364708 19.4268 3.5133 19.4268H6.57961L6.68499 19.8436C6.95504 20.9112 8.49591 22 9.7371 22C10.9783 22 12.5192 20.9112 12.7892 19.8436L12.8946 19.4268H15.9609C19.8398 19.4268 20.037 19.3019 18.7362 17.6684C17.1047 15.6194 16.6618 14.2333 16.4949 10.652C16.3242 6.99157 16.0649 6.23282 14.4327 4.61844C13.7288 3.92213 12.9745 3.36072 12.4677 3.15598C11.657 2.82839 11.6449 2.81222 11.6444 2.04468C11.6435 1.15998 11.3284 0.614744 10.6018 0.241732C9.93018 -0.102892 9.41454 -0.081041 8.75156 0.320188ZM9.25178 1.56758C9.13739 1.68113 9.04379 1.95212 9.04379 2.16977C9.04379 2.5168 9.12924 2.56549 9.7371 2.56549C10.345 2.56549 10.4304 2.5168 10.4304 2.16977C10.4304 1.70901 10.1321 1.36111 9.7371 1.36111C9.58457 1.36111 9.36618 1.45402 9.25178 1.56758ZM7.34901 4.46617C6.20297 5.03463 5.44675 5.77705 4.85484 6.91467C4.53523 7.5289 4.45636 8.06622 4.3444 10.3939C4.17783 13.8553 3.81142 15.3118 2.62691 17.2229C2.343 17.6808 2.11074 18.093 2.11074 18.1389C2.11074 18.1849 5.5426 18.2224 9.7371 18.2224C13.9316 18.2224 17.3635 18.1849 17.3635 18.1389C17.3635 18.093 17.1312 17.6808 16.8473 17.2229C15.6628 15.3118 15.2964 13.8553 15.1298 10.3939C15.0178 8.06622 14.939 7.5289 14.6194 6.91467C14.0274 5.77705 13.2712 5.03463 12.1252 4.46617C11.2227 4.01848 10.8739 3.94192 9.7371 3.94192C8.60025 3.94192 8.25152 4.01848 7.34901 4.46617ZM8.00383 19.6071C8.00383 19.7062 8.21027 19.9772 8.46246 20.2093C8.81431 20.5329 9.11122 20.6311 9.7371 20.6311C10.363 20.6311 10.6599 20.5329 11.0117 20.2093C11.2639 19.9772 11.4704 19.7062 11.4704 19.6071C11.4704 19.4933 10.8297 19.4268 9.7371 19.4268C8.64445 19.4268 8.00383 19.4933 8.00383 19.6071Z" fill="#585858"/>
</svg>
