<svg width="31" height="30" viewBox="0 0 31 30" fill="none" xmlns="http://www.w3.org/2000/svg">
<path fill-rule="evenodd" clip-rule="evenodd" d="M13.2974 0.297229C13.0078 0.461801 12.1365 1.13457 11.3613 1.7926C9.97702 2.96725 9.91067 2.99147 7.67485 3.13761C4.04321 3.37512 3.37307 4.04026 3.15004 7.62977C3.01075 9.86953 2.98995 9.92641 1.80345 11.3286C0.248833 13.166 0 13.671 0 14.991C0 16.3092 0.24936 16.8166 1.79265 18.6408C2.95809 20.0182 2.98968 20.1038 3.10633 22.1956C3.31014 25.8478 4.07086 26.6277 7.64773 26.85C9.88749 26.9893 9.94437 27.0101 11.3465 28.1966C13.1839 29.7512 13.689 30 15.009 30C16.3203 30 16.8266 29.7496 18.6477 28.2002C20.0196 27.033 20.0954 27.0051 22.3502 26.8426C25.8918 26.5869 26.6496 25.8317 26.8679 22.3399C27.0069 20.1151 27.0293 20.054 28.2145 18.6535C29.7691 16.8161 30.018 16.311 30.018 14.991C30.018 13.671 29.7691 13.166 28.2145 11.3286C27.0293 9.92799 27.0069 9.8669 26.8679 7.64215C26.6491 4.14216 25.8578 3.3509 22.3578 3.13208C20.1331 2.99305 20.072 2.97067 18.6714 1.78549C17.8881 1.12272 16.9883 0.445739 16.6721 0.281167C15.9374 -0.100904 13.9818 -0.0916877 13.2974 0.297229ZM12.8867 3.31324C11.0253 4.90446 10.1477 5.24835 7.9487 5.24835C5.57992 5.24835 5.26631 5.56749 5.26631 7.97656C5.26631 10.0884 4.9161 10.9694 3.31619 12.8827C1.765 14.7374 1.76685 15.2836 3.3312 17.1133C4.92242 18.9747 5.26631 19.8524 5.26631 22.0513C5.26631 24.4201 5.58545 24.7337 7.99452 24.7337C10.1471 24.7337 11.0329 25.0842 12.8867 26.6688C13.8004 27.4498 14.569 27.8935 15.009 27.8935C15.449 27.8935 16.2176 27.4498 17.1313 26.6688C18.9669 25.0997 19.8724 24.7337 21.9197 24.7337C24.3748 24.7337 24.7517 24.3803 24.7517 22.0771C24.7517 19.8518 25.0919 18.9789 26.6868 17.1133C28.2751 15.2554 28.2764 14.6658 26.6968 12.8403C25.1027 10.9978 24.7517 10.112 24.7517 7.93074C24.7517 5.56196 24.4325 5.24835 22.0234 5.24835C19.8571 5.24835 18.9171 4.87339 17.1518 3.30587C15.361 1.71518 14.7546 1.71624 12.8867 3.31324ZM16.4591 13.6726L13.3093 16.8308L11.8126 15.3499C10.5413 14.0918 10.2135 13.8946 9.63445 14.0399C9.10334 14.1734 8.95272 14.3746 8.95272 14.9515C8.95272 15.5263 9.38851 16.1143 10.8994 17.5797C11.9703 18.6179 13.0568 19.4674 13.314 19.4674C13.9978 19.4674 21.0652 12.3837 21.0652 11.6985C21.0652 11.0452 20.5971 10.5147 20.0209 10.5147C19.7942 10.5147 18.1914 11.9358 16.4591 13.6726Z" fill="#585858"/>
</svg>
