<svg width="64" height="64" viewBox="0 0 64 64" fill="none" xmlns="http://www.w3.org/2000/svg">
<path d="M31.9999 3.76471C31.2925 3.76471 30.5852 4.17901 30.321 5.00763L24.8657 22.1152C24.6295 22.8563 23.9516 23.3581 23.1869 23.3581H5.53336C3.82323 23.3581 3.1122 25.5879 4.49576 26.6122L18.7777 37.1852C19.3964 37.6433 19.6553 38.4552 19.4189 39.1963L13.9638 56.3039C13.4353 57.9611 15.2968 59.3392 16.6802 58.315L30.9623 47.7419C31.2717 47.5129 31.6357 47.3984 31.9999 47.3984V3.76471Z" fill="#FFB127"/>
<path d="M32.0001 3.76471C32.7075 3.76471 33.4148 4.17901 33.679 5.00763L39.1343 22.1152C39.3705 22.8563 40.0484 23.3581 40.8131 23.3581H58.4666C60.1768 23.3581 60.8878 25.5879 59.5042 26.6122L45.2223 37.1852C44.6036 37.6433 44.3447 38.4552 44.5811 39.1963L50.0362 56.3039C50.5647 57.9611 48.7032 59.3392 47.3198 58.315L33.0377 47.7419C32.7283 47.5129 32.3643 47.3984 32.0001 47.3984V3.76471Z" fill="#FFB127"/>
</svg>
