<svg width="64" height="65" viewBox="0 0 64 65" fill="none" xmlns="http://www.w3.org/2000/svg">
<path d="M63.9962 31.6473C63.9962 32.2299 63.9962 32.8124 63.9962 33.395C63.6213 34.5804 62.8919 35.5175 61.9953 36.3584C61.0683 37.2246 60.2122 38.1668 59.2902 39.0331C58.8444 39.4535 58.7127 39.8739 58.885 40.4768C59.3054 41.9154 59.6651 43.3692 60.0551 44.813C60.815 47.6447 59.6144 49.8178 56.7979 50.6334C55.2985 51.069 53.7889 51.4641 52.2794 51.8441C51.7475 51.9758 51.4689 52.2544 51.3372 52.7863C50.9522 54.2958 50.5419 55.8054 50.1265 57.3048C49.3666 60.0656 47.1377 61.327 44.3668 60.5823C42.8826 60.1821 41.3882 59.8073 39.9091 59.3868C39.3569 59.2298 38.9669 59.3514 38.5768 59.7617C37.7004 60.6786 36.7684 61.5397 35.8971 62.4667C35.041 63.3785 34.0988 64.1333 32.8931 64.5082C32.3106 64.5082 31.728 64.5082 31.1455 64.5082C30.2134 64.1789 29.3675 63.723 28.6684 62.9936C27.6046 61.8791 26.4851 60.8204 25.4112 59.7161C25.0515 59.3463 24.6817 59.2348 24.1802 59.3767C22.6757 59.7971 21.1611 60.1821 19.6566 60.5874C16.8908 61.332 14.6619 60.0555 13.902 57.2896C13.4917 55.7851 13.0763 54.2756 12.6913 52.766C12.5647 52.2645 12.2962 51.9859 11.7947 51.8542C10.3206 51.4793 8.86172 51.0589 7.39268 50.6739C4.49006 49.9191 3.18819 47.675 3.97843 44.7775C4.36849 43.349 4.72815 41.9154 5.13847 40.497C5.3107 39.9043 5.20432 39.4788 4.75348 39.0482C3.60864 37.9541 2.49926 36.8244 1.38989 35.6948C-0.464139 33.8104 -0.464139 31.2269 1.39495 29.3425C2.47394 28.2432 3.55292 27.1389 4.67243 26.0802C5.17393 25.6091 5.32589 25.1481 5.12327 24.4795C4.69269 23.0459 4.32796 21.587 3.94297 20.1433C3.21352 17.4078 4.49513 15.1637 7.21032 14.4191C8.73507 14.0037 10.2649 13.5833 11.7947 13.1932C12.3013 13.0615 12.5647 12.7829 12.6913 12.2814C13.0763 10.7668 13.4917 9.26225 13.9071 7.75776C14.672 4.96659 16.906 3.70524 19.7123 4.46509C21.2016 4.87034 22.6909 5.25026 24.1752 5.67071C24.6767 5.81255 25.0465 5.7163 25.4061 5.34144C26.5408 4.17635 27.6907 3.03151 28.8508 1.89174C30.725 0.0427785 33.3288 0.0478439 35.2081 1.90187C36.3479 3.02644 37.4877 4.15608 38.6072 5.30598C38.982 5.69604 39.362 5.81761 39.8888 5.66564C41.3882 5.23506 42.9029 4.84501 44.4124 4.44482C47.1428 3.71537 49.3818 4.99191 50.1315 7.71217C50.552 9.23693 50.9674 10.7617 51.3625 12.2966C51.4942 12.8031 51.7677 13.0666 52.2743 13.1932C53.8295 13.5883 55.3795 13.9885 56.9195 14.4393C59.6144 15.2296 60.8251 17.4433 60.0957 20.1585C59.6904 21.668 59.3054 23.1776 58.8799 24.6821C58.7381 25.1836 58.8495 25.5534 59.2193 25.913C60.1615 26.8248 61.0581 27.7873 62.0105 28.6839C62.8868 29.5299 63.6365 30.4518 63.9962 31.6473ZM18.1318 32.468C18.1217 40.2032 24.2208 46.3782 31.8952 46.3985C39.7267 46.4188 45.8815 40.3147 45.8865 32.5034C45.8967 24.8037 39.7622 18.6489 32.0624 18.6388C24.2866 18.6337 18.142 24.7327 18.1318 32.468Z" fill="#159800"/>
<path d="M29.8999 38.9119C29.368 38.9271 28.9273 38.7498 28.5676 38.4054C26.9821 36.9009 25.3914 35.4014 23.8262 33.8716C22.9346 33.0003 22.9042 31.8048 23.6894 31.0348C24.4492 30.2851 25.6143 30.3408 26.4856 31.1665C27.4329 32.0733 28.4004 32.9598 29.3173 33.902C29.7327 34.3275 29.986 34.2718 30.376 33.8767C32.6303 31.5921 34.9047 29.3328 37.1691 27.0634C37.4325 26.8 37.6959 26.5264 38.0252 26.344C38.8053 25.9084 39.8083 26.0654 40.3655 26.7138C40.9936 27.4382 41.0342 28.4564 40.401 29.1757C39.9197 29.7228 39.3878 30.2193 38.8711 30.736C36.3991 33.208 33.922 35.68 31.455 38.1571C31.0143 38.608 30.5331 38.9423 29.8999 38.9119Z" fill="#159800"/>
</svg>
