<svg width="65" height="64" viewBox="0 0 65 64" fill="none" xmlns="http://www.w3.org/2000/svg">
<path fill-rule="evenodd" clip-rule="evenodd" d="M28.6477 0.204978C21.2248 0.973025 15.4409 3.81115 9.69722 9.50311C3.19105 15.9499 0.303711 22.8826 0.303711 32.0546C0.303711 41.2109 3.18395 48.135 9.69773 54.6355C16.2146 61.1396 23.1385 64.0056 32.3229 64C41.5281 63.9944 48.4358 61.135 54.948 54.6355C61.4735 48.1233 64.3029 41.293 64.3029 32.0546C64.3029 22.8163 61.4735 15.9859 54.948 9.47372C47.6845 2.22389 38.9341 -0.859953 28.6477 0.204978ZM16.5866 20.2355C14.1105 21.2077 14.0485 21.4955 14.0485 32.0546C14.0485 41.5544 14.0993 42.0762 15.1176 42.9952C16.0958 43.8783 17.0719 43.9603 26.5842 43.9603C39.9859 43.9603 38.9219 44.9868 38.9219 32.0546C38.9219 19.1918 39.889 20.1803 27.1654 20.0425C21.7659 19.9842 17.0054 20.0708 16.5866 20.2355ZM44.8865 22.9601L40.9524 24.974V32.0551V39.1362L45.0682 41.2013C47.3322 42.3376 49.5068 43.1432 49.9007 42.9922C50.9997 42.5712 50.6896 21.2275 49.582 21.0608C49.1632 20.998 47.0505 21.8527 44.8865 22.9601ZM21.973 30.8037C21.5233 31.2531 21.1552 31.816 21.1552 32.0546C21.1552 32.2932 21.5233 32.8561 21.973 33.3055C23.1654 34.495 30.198 34.2113 30.998 32.9412C31.4041 32.2963 31.4041 31.8129 30.998 31.168C30.198 29.8979 23.1654 29.6142 21.973 30.8037Z" fill="#B3B3B3"/>
</svg>
