<svg width="65" height="64" viewBox="0 0 65 64" fill="none" xmlns="http://www.w3.org/2000/svg">
<path fill-rule="evenodd" clip-rule="evenodd" d="M28.6479 0.204978C21.225 0.973025 15.4412 3.81115 9.69747 9.50311C3.1913 15.9499 0.303955 22.8826 0.303955 32.0546C0.303955 41.2109 3.18419 48.135 9.69798 54.6355C16.2148 61.1396 23.1387 64.0056 32.3231 64C41.5283 63.9944 48.436 61.135 54.9483 54.6355C61.4737 48.1233 64.3032 41.293 64.3032 32.0546C64.3032 22.8163 61.4737 15.9859 54.9483 9.47372C47.6847 2.22389 38.9344 -0.859953 28.6479 0.204978ZM16.5869 20.2355C14.1107 21.2077 14.0488 21.4955 14.0488 32.0546C14.0488 41.5544 14.0995 42.0762 15.1178 42.9952C16.096 43.8783 17.0722 43.9603 26.5845 43.9603C39.9861 43.9603 38.9222 44.9868 38.9222 32.0546C38.9222 19.1918 39.8892 20.1803 27.1657 20.0425C21.7661 19.9842 17.0057 20.0708 16.5869 20.2355ZM44.8867 22.9601L40.9527 24.974V32.0551V39.1362L45.0684 41.2013C47.3324 42.3376 49.5071 43.1432 49.901 42.9922C51 42.5712 50.6898 21.2275 49.5822 21.0608C49.1634 20.998 47.0507 21.8527 44.8867 22.9601ZM21.9732 30.8037C21.5235 31.2531 21.1555 31.816 21.1555 32.0546C21.1555 32.2932 21.5235 32.8561 21.9732 33.3055C23.1656 34.495 30.1982 34.2113 30.9982 32.9412C31.4043 32.2963 31.4043 31.8129 30.9982 31.168C30.1982 29.8979 23.1656 29.6142 21.9732 30.8037Z" fill="#015DE2"/>
</svg>
