<svg width="131" height="39" viewBox="0 0 131 39" fill="none" xmlns="http://www.w3.org/2000/svg">
<path d="M0 19.4373C0 8.92915 8.31404 0.869858 18.5654 0.869858C28.8167 0.869858 37.1327 8.92915 37.1327 19.4373C37.1327 29.9454 28.8187 38.0026 18.5654 38.0026C8.31201 38.0026 0 29.9433 0 19.4373ZM28.9666 19.4373C28.9666 13.0687 24.3772 8.82847 18.5612 8.82847C12.7454 8.82847 8.15586 13.0605 8.15586 19.4373C8.15586 25.8141 12.7474 30.046 18.5612 30.046C24.3751 30.046 28.9666 25.8141 28.9666 19.4373Z" fill="url(#paint0_linear_996_14742)"/>
<path d="M38.2167 31.3729L50.2018 18.9255C52.2932 16.7848 53.8237 14.6935 53.8237 12.6021C53.8237 10.3567 52.3959 8.82822 49.9984 8.82822C47.4983 8.82822 45.713 10.4594 44.7454 12.7049L37.8633 8.67418C40.158 3.36978 44.9529 0.867554 49.8998 0.867554C56.2684 0.867554 61.99 5.05026 61.99 12.2427C61.99 16.5281 59.693 20.1992 56.4286 23.4636L50.5121 29.4213H62.4955V37.2874H38.2167V31.3729Z" fill="url(#paint1_linear_996_14742)"/>
<path d="M82.8962 23.5682V37.2873H74.7363V23.5682L62.7485 1.58647H72.0327L78.8121 15.3507L85.5914 1.58647H94.875L82.8962 23.5682Z" fill="url(#paint2_linear_996_14742)"/>
<path d="M93.8672 19.4364C93.8672 8.92827 102.182 0.86898 112.433 0.86898C122.684 0.86898 131 8.92827 131 19.4364C131 29.9445 122.686 38.0018 112.437 38.0018C102.188 38.0018 93.8672 29.9424 93.8672 19.4364ZM122.834 19.4364C122.834 13.0678 118.245 8.82759 112.429 8.82759C106.613 8.82759 102.024 13.0596 102.024 19.4364C102.024 25.8132 106.615 30.0452 112.429 30.0452C118.243 30.0452 122.838 25.8132 122.838 19.4364H122.834Z" fill="url(#paint3_linear_996_14742)"/>
<defs>
<linearGradient id="paint0_linear_996_14742" x1="-22.3475" y1="61.8254" x2="77.0552" y2="-41.1544" gradientUnits="userSpaceOnUse">
<stop stop-color="#0018F2"/>
<stop offset="0.53" stop-color="#006EDD"/>
<stop offset="1" stop-color="#00BACB"/>
</linearGradient>
<linearGradient id="paint1_linear_996_14742" x1="-4.7937" y1="79.3033" x2="94.6093" y2="-23.6761" gradientUnits="userSpaceOnUse">
<stop stop-color="#0018F2"/>
<stop offset="0.53" stop-color="#006EDD"/>
<stop offset="1" stop-color="#00BACB"/>
</linearGradient>
<linearGradient id="paint2_linear_996_14742" x1="7.11328" y1="78.4739" x2="99.8007" y2="-49.2858" gradientUnits="userSpaceOnUse">
<stop stop-color="#0018F2"/>
<stop offset="0.53" stop-color="#006EDD"/>
<stop offset="1" stop-color="#00BACB"/>
</linearGradient>
<linearGradient id="paint3_linear_996_14742" x1="29.5618" y1="80.8402" x2="122.404" y2="-61.3724" gradientUnits="userSpaceOnUse">
<stop stop-color="#0018F2"/>
<stop offset="0.53" stop-color="#006EDD"/>
<stop offset="1" stop-color="#00BACB"/>
</linearGradient>
</defs>
</svg>
