<svg width="623" height="177" viewBox="0 0 623 177" fill="none" xmlns="http://www.w3.org/2000/svg">
<path d="M0.646484 88.1048C0.646484 38.2487 40.0927 0.0112305 88.7302 0.0112305C137.368 0.0112305 176.824 38.2487 176.824 88.1048C176.824 137.961 137.377 176.189 88.7302 176.189C40.083 176.189 0.646484 137.951 0.646484 88.1048ZM138.079 88.1048C138.079 57.889 116.304 37.771 88.7106 37.771C61.1171 37.771 39.3422 57.85 39.3422 88.1048C39.3422 118.36 61.1267 138.438 88.7106 138.438C116.295 138.438 138.079 118.36 138.079 88.1048Z" fill="url(#paint0_linear_530_3346)"/>
<path d="M181.965 144.733L238.829 85.6763C248.751 75.5198 256.013 65.5976 256.013 55.675C256.013 45.0215 249.239 37.7696 237.864 37.7696C226.002 37.7696 217.531 45.5089 212.941 56.1623L180.288 37.0387C191.175 11.8719 213.925 0 237.396 0C267.612 0 294.758 19.845 294.758 53.9694C294.758 74.3016 283.86 91.7194 268.372 107.207L240.301 135.474H297.156V172.795H181.965V144.733Z" fill="url(#paint1_linear_530_3346)"/>
<path d="M393.95 107.704V172.794H355.235V107.704L298.358 3.41064H342.407L374.572 68.7155L406.737 3.41064H450.783L393.95 107.704Z" fill="url(#paint2_linear_530_3346)"/>
<path d="M446.001 88.1007C446.001 38.2446 485.45 0.00708008 534.088 0.00708008C582.723 0.00708008 622.18 38.2446 622.18 88.1007C622.18 137.956 582.734 176.184 534.105 176.184C485.478 176.184 446.001 137.947 446.001 88.1007ZM583.436 88.1007C583.436 57.8848 561.661 37.7669 534.068 37.7669C506.472 37.7669 484.699 57.8459 484.699 88.1007C484.699 118.355 506.484 138.434 534.068 138.434C561.652 138.434 583.456 118.355 583.456 88.1007H583.436Z" fill="url(#paint3_linear_530_3346)"/>
<defs>
<linearGradient id="paint0_linear_530_3346" x1="-105.382" y1="289.216" x2="366.237" y2="-199.374" gradientUnits="userSpaceOnUse">
<stop stop-color="#0018F2"/>
<stop offset="0.53" stop-color="#006EDD"/>
<stop offset="1" stop-color="#00BACB"/>
</linearGradient>
<linearGradient id="paint1_linear_530_3346" x1="-22.0989" y1="372.14" x2="449.521" y2="-116.448" gradientUnits="userSpaceOnUse">
<stop stop-color="#0018F2"/>
<stop offset="0.53" stop-color="#006EDD"/>
<stop offset="1" stop-color="#00BACB"/>
</linearGradient>
<linearGradient id="paint2_linear_530_3346" x1="34.3957" y1="368.205" x2="474.153" y2="-237.954" gradientUnits="userSpaceOnUse">
<stop stop-color="#0018F2"/>
<stop offset="0.53" stop-color="#006EDD"/>
<stop offset="1" stop-color="#00BACB"/>
</linearGradient>
<linearGradient id="paint3_linear_530_3346" x1="140.903" y1="379.432" x2="581.396" y2="-295.298" gradientUnits="userSpaceOnUse">
<stop stop-color="#0018F2"/>
<stop offset="0.53" stop-color="#006EDD"/>
<stop offset="1" stop-color="#00BACB"/>
</linearGradient>
</defs>
</svg>
