<svg width="22" height="22" viewBox="0 0 22 22" fill="none" xmlns="http://www.w3.org/2000/svg">
<circle cx="11" cy="11" r="11" fill="#F2F2F2"/>
<path fill-rule="evenodd" clip-rule="evenodd" d="M8.99685 4.09012C6.73902 4.81248 5.2334 6.90055 5.2334 9.30938C5.2334 10.5184 5.46745 11.4305 6.13185 12.8094C6.82536 14.2491 7.20359 14.8606 8.94375 17.356C10.1838 19.1344 10.4476 19.4462 10.7118 19.4462C10.9761 19.4462 11.2418 19.1323 12.4908 17.3455C14.6719 14.2254 15.6148 12.5206 16.0073 10.9877C16.9696 7.22898 14.4387 3.84121 10.6867 3.86556C10.0697 3.86958 9.41368 3.95677 8.99685 4.09012ZM9.66393 4.94096C7.86093 5.40833 6.43933 7.03292 6.25022 8.84213C6.11578 10.1293 6.51569 11.4963 7.58889 13.4183C8.12835 14.3842 10.5898 17.9849 10.7106 17.9849C10.7542 17.9849 11.272 17.2978 11.8614 16.4579C14.8581 12.1878 15.6365 10.0934 14.9939 8.02855C14.5825 6.70706 13.7137 5.74394 12.4181 5.17355C11.815 4.90796 10.2885 4.77912 9.66393 4.94096ZM9.5564 6.82749C8.83087 7.16968 8.50013 7.50638 8.16622 8.24288C7.84997 8.94053 7.84997 9.73718 8.16622 10.4348C8.67366 11.5542 9.47701 12.0698 10.7133 12.0698C12.3701 12.0698 13.4454 10.9946 13.4445 9.33885C13.4439 8.10235 12.9282 7.29912 11.8092 6.79181C11.0776 6.4601 10.3097 6.47227 9.5564 6.82749ZM10.1653 7.69818C8.92804 8.12853 8.5682 9.64804 9.48614 10.566C10.1663 11.2461 11.2603 11.2461 11.9404 10.566C13.2351 9.27127 11.8901 7.0982 10.1653 7.69818Z" fill="black"/>
</svg>
